<mxfile host="Electron" modified="2024-09-26T16:18:01.047Z" agent="Mozilla/5.0 (Windows NT 10.0; Win64; x64) AppleWebKit/537.36 (KHTML, like Gecko) draw.io/24.4.0 Chrome/120.0.6099.109 Electron/28.1.0 Safari/537.36" etag="b-crWobObcklzGabogpO" version="24.4.0" type="device">
  <diagram id="C5RBs43oDa-KdzZeNtuy" name="Page-1">
    <mxGraphModel dx="1688" dy="559" grid="1" gridSize="10" guides="1" tooltips="1" connect="1" arrows="1" fold="1" page="1" pageScale="1" pageWidth="827" pageHeight="1169" math="0" shadow="0">
      <root>
        <mxCell id="WIyWlLk6GJQsqaUBKTNV-0" />
        <mxCell id="WIyWlLk6GJQsqaUBKTNV-1" parent="WIyWlLk6GJQsqaUBKTNV-0" />
        <mxCell id="542ienEPj6v7TYGvCybK-5" style="edgeStyle=orthogonalEdgeStyle;rounded=0;orthogonalLoop=1;jettySize=auto;html=1;entryX=0;entryY=0.5;entryDx=0;entryDy=0;" parent="WIyWlLk6GJQsqaUBKTNV-1" source="WIyWlLk6GJQsqaUBKTNV-3" target="542ienEPj6v7TYGvCybK-2" edge="1">
          <mxGeometry relative="1" as="geometry" />
        </mxCell>
        <mxCell id="WIyWlLk6GJQsqaUBKTNV-3" value="initial gtp" style="rounded=1;whiteSpace=wrap;html=1;fontSize=12;glass=0;strokeWidth=1;shadow=0;" parent="WIyWlLk6GJQsqaUBKTNV-1" vertex="1">
          <mxGeometry x="-520" y="180" width="120" height="40" as="geometry" />
        </mxCell>
        <mxCell id="542ienEPj6v7TYGvCybK-8" style="edgeStyle=orthogonalEdgeStyle;rounded=0;orthogonalLoop=1;jettySize=auto;html=1;entryX=1;entryY=0.5;entryDx=0;entryDy=0;exitX=0.5;exitY=1;exitDx=0;exitDy=0;" parent="WIyWlLk6GJQsqaUBKTNV-1" source="542ienEPj6v7TYGvCybK-1" target="542ienEPj6v7TYGvCybK-7" edge="1">
          <mxGeometry relative="1" as="geometry">
            <mxPoint x="-40" y="330" as="targetPoint" />
            <Array as="points">
              <mxPoint x="-10" y="370" />
            </Array>
          </mxGeometry>
        </mxCell>
        <mxCell id="542ienEPj6v7TYGvCybK-10" value="S1_wallthickness&lt;br&gt;S2_wallthickness" style="edgeLabel;html=1;align=center;verticalAlign=middle;resizable=0;points=[];" parent="542ienEPj6v7TYGvCybK-8" vertex="1" connectable="0">
          <mxGeometry x="-0.55" y="2" relative="1" as="geometry">
            <mxPoint as="offset" />
          </mxGeometry>
        </mxCell>
        <mxCell id="542ienEPj6v7TYGvCybK-13" value="sigma1&lt;br&gt;sigma2" style="edgeLabel;html=1;align=center;verticalAlign=middle;resizable=0;points=[];" parent="542ienEPj6v7TYGvCybK-8" vertex="1" connectable="0">
          <mxGeometry x="0.5158" y="2" relative="1" as="geometry">
            <mxPoint as="offset" />
          </mxGeometry>
        </mxCell>
        <mxCell id="542ienEPj6v7TYGvCybK-19" style="edgeStyle=orthogonalEdgeStyle;rounded=0;orthogonalLoop=1;jettySize=auto;html=1;entryX=0;entryY=0.5;entryDx=0;entryDy=0;" parent="WIyWlLk6GJQsqaUBKTNV-1" target="542ienEPj6v7TYGvCybK-18" edge="1">
          <mxGeometry relative="1" as="geometry">
            <mxPoint x="70" y="200" as="sourcePoint" />
          </mxGeometry>
        </mxCell>
        <mxCell id="542ienEPj6v7TYGvCybK-22" value="sigma1&lt;br&gt;sigma2&lt;br&gt;sigma3&lt;br&gt;sigma4&lt;div&gt;sigma5&lt;/div&gt;&lt;div&gt;sigma6&lt;/div&gt;" style="edgeLabel;html=1;align=center;verticalAlign=middle;resizable=0;points=[];" parent="542ienEPj6v7TYGvCybK-19" vertex="1" connectable="0">
          <mxGeometry x="-0.1" relative="1" as="geometry">
            <mxPoint x="-55" as="offset" />
          </mxGeometry>
        </mxCell>
        <mxCell id="vRhWBDTnP5E1zHMOb6t0-0" value="€/pay" style="edgeLabel;html=1;align=center;verticalAlign=middle;resizable=0;points=[];" vertex="1" connectable="0" parent="542ienEPj6v7TYGvCybK-19">
          <mxGeometry x="-0.2339" y="1" relative="1" as="geometry">
            <mxPoint x="32" as="offset" />
          </mxGeometry>
        </mxCell>
        <mxCell id="542ienEPj6v7TYGvCybK-1" value="Odin" style="rounded=1;whiteSpace=wrap;html=1;fontSize=12;glass=0;strokeWidth=1;shadow=0;" parent="WIyWlLk6GJQsqaUBKTNV-1" vertex="1">
          <mxGeometry x="-70" y="180" width="120" height="40" as="geometry" />
        </mxCell>
        <mxCell id="542ienEPj6v7TYGvCybK-6" style="edgeStyle=orthogonalEdgeStyle;rounded=0;orthogonalLoop=1;jettySize=auto;html=1;entryX=0;entryY=0.5;entryDx=0;entryDy=0;" parent="WIyWlLk6GJQsqaUBKTNV-1" source="542ienEPj6v7TYGvCybK-2" target="542ienEPj6v7TYGvCybK-1" edge="1">
          <mxGeometry relative="1" as="geometry" />
        </mxCell>
        <mxCell id="542ienEPj6v7TYGvCybK-11" value="p1, p2, fluxes" style="edgeLabel;html=1;align=center;verticalAlign=middle;resizable=0;points=[];" parent="542ienEPj6v7TYGvCybK-6" vertex="1" connectable="0">
          <mxGeometry x="-0.1111" y="1" relative="1" as="geometry">
            <mxPoint as="offset" />
          </mxGeometry>
        </mxCell>
        <mxCell id="542ienEPj6v7TYGvCybK-2" value="Loadcase &lt;br&gt;generator" style="rounded=1;whiteSpace=wrap;html=1;fontSize=12;glass=0;strokeWidth=1;shadow=0;" parent="WIyWlLk6GJQsqaUBKTNV-1" vertex="1">
          <mxGeometry x="-280" y="180" width="120" height="40" as="geometry" />
        </mxCell>
        <mxCell id="542ienEPj6v7TYGvCybK-9" style="edgeStyle=orthogonalEdgeStyle;rounded=0;orthogonalLoop=1;jettySize=auto;html=1;entryX=0;entryY=0.5;entryDx=0;entryDy=0;exitX=0;exitY=0.5;exitDx=0;exitDy=0;" parent="WIyWlLk6GJQsqaUBKTNV-1" source="542ienEPj6v7TYGvCybK-7" target="542ienEPj6v7TYGvCybK-2" edge="1">
          <mxGeometry relative="1" as="geometry">
            <Array as="points">
              <mxPoint x="-330" y="370" />
              <mxPoint x="-330" y="200" />
            </Array>
          </mxGeometry>
        </mxCell>
        <mxCell id="542ienEPj6v7TYGvCybK-12" value="prop1, prop2&lt;br&gt;length1, length2" style="edgeLabel;html=1;align=center;verticalAlign=middle;resizable=0;points=[];" parent="542ienEPj6v7TYGvCybK-9" vertex="1" connectable="0">
          <mxGeometry x="-0.5929" y="2" relative="1" as="geometry">
            <mxPoint as="offset" />
          </mxGeometry>
        </mxCell>
        <mxCell id="vRhWBDTnP5E1zHMOb6t0-1" style="edgeStyle=orthogonalEdgeStyle;rounded=0;orthogonalLoop=1;jettySize=auto;html=1;entryX=0;entryY=0.5;entryDx=0;entryDy=0;" edge="1" parent="WIyWlLk6GJQsqaUBKTNV-1" source="542ienEPj6v7TYGvCybK-7" target="542ienEPj6v7TYGvCybK-18">
          <mxGeometry relative="1" as="geometry">
            <mxPoint x="70" y="210" as="targetPoint" />
            <Array as="points">
              <mxPoint x="-172" y="400" />
              <mxPoint x="71" y="400" />
              <mxPoint x="71" y="200" />
            </Array>
          </mxGeometry>
        </mxCell>
        <mxCell id="542ienEPj6v7TYGvCybK-7" value="ASTOS" style="rounded=1;whiteSpace=wrap;html=1;fontSize=12;glass=0;strokeWidth=1;shadow=0;" parent="WIyWlLk6GJQsqaUBKTNV-1" vertex="1">
          <mxGeometry x="-231.72" y="350" width="120" height="40" as="geometry" />
        </mxCell>
        <mxCell id="542ienEPj6v7TYGvCybK-15" value="i &amp;lt; 3" style="verticalLabelPosition=middle;html=1;verticalAlign=middle;strokeWidth=2;shape=mxgraph.lean_mapping.physical_pull;pointerEvents=1;rotation=0;flipH=1;labelPosition=center;align=center;" parent="WIyWlLk6GJQsqaUBKTNV-1" vertex="1">
          <mxGeometry x="-220" y="240" width="80" height="80" as="geometry" />
        </mxCell>
        <mxCell id="542ienEPj6v7TYGvCybK-21" style="edgeStyle=orthogonalEdgeStyle;rounded=0;orthogonalLoop=1;jettySize=auto;html=1;entryX=0.5;entryY=0;entryDx=0;entryDy=0;" parent="WIyWlLk6GJQsqaUBKTNV-1" source="542ienEPj6v7TYGvCybK-18" target="542ienEPj6v7TYGvCybK-20" edge="1">
          <mxGeometry relative="1" as="geometry" />
        </mxCell>
        <mxCell id="542ienEPj6v7TYGvCybK-25" value="sigma7&lt;br&gt;sigma8" style="edgeLabel;html=1;align=center;verticalAlign=middle;resizable=0;points=[];" parent="542ienEPj6v7TYGvCybK-21" vertex="1" connectable="0">
          <mxGeometry x="-0.1667" y="2" relative="1" as="geometry">
            <mxPoint as="offset" />
          </mxGeometry>
        </mxCell>
        <mxCell id="542ienEPj6v7TYGvCybK-18" value="Downhill Simplex" style="rounded=1;whiteSpace=wrap;html=1;fontSize=12;glass=0;strokeWidth=1;shadow=0;" parent="WIyWlLk6GJQsqaUBKTNV-1" vertex="1">
          <mxGeometry x="305" y="180" width="120" height="40" as="geometry" />
        </mxCell>
        <mxCell id="542ienEPj6v7TYGvCybK-26" style="edgeStyle=orthogonalEdgeStyle;rounded=0;orthogonalLoop=1;jettySize=auto;html=1;entryX=0.5;entryY=0;entryDx=0;entryDy=0;exitX=0.5;exitY=1;exitDx=0;exitDy=0;" parent="WIyWlLk6GJQsqaUBKTNV-1" source="542ienEPj6v7TYGvCybK-20" target="542ienEPj6v7TYGvCybK-33" edge="1">
          <mxGeometry relative="1" as="geometry">
            <mxPoint x="190" y="270" as="sourcePoint" />
            <mxPoint x="60" y="470" as="targetPoint" />
          </mxGeometry>
        </mxCell>
        <mxCell id="542ienEPj6v7TYGvCybK-31" value="sigma7&lt;br&gt;sigma8&lt;br&gt;€/pay" style="edgeLabel;html=1;align=center;verticalAlign=middle;resizable=0;points=[];" parent="542ienEPj6v7TYGvCybK-26" vertex="1" connectable="0">
          <mxGeometry relative="1" as="geometry">
            <mxPoint as="offset" />
          </mxGeometry>
        </mxCell>
        <mxCell id="542ienEPj6v7TYGvCybK-29" style="edgeStyle=orthogonalEdgeStyle;rounded=0;orthogonalLoop=1;jettySize=auto;html=1;entryX=0;entryY=0.5;entryDx=0;entryDy=0;exitX=0.5;exitY=1;exitDx=0;exitDy=0;" parent="WIyWlLk6GJQsqaUBKTNV-1" source="542ienEPj6v7TYGvCybK-20" target="542ienEPj6v7TYGvCybK-55" edge="1">
          <mxGeometry relative="1" as="geometry" />
        </mxCell>
        <mxCell id="542ienEPj6v7TYGvCybK-20" value="ASTOS" style="rounded=1;whiteSpace=wrap;html=1;fontSize=12;glass=0;strokeWidth=1;shadow=0;" parent="WIyWlLk6GJQsqaUBKTNV-1" vertex="1">
          <mxGeometry x="335" y="280" width="60" height="40" as="geometry" />
        </mxCell>
        <mxCell id="542ienEPj6v7TYGvCybK-59" style="edgeStyle=orthogonalEdgeStyle;rounded=0;orthogonalLoop=1;jettySize=auto;html=1;entryX=1;entryY=0.5;entryDx=0;entryDy=0;exitX=0.5;exitY=1;exitDx=0;exitDy=0;" parent="WIyWlLk6GJQsqaUBKTNV-1" source="542ienEPj6v7TYGvCybK-27" target="542ienEPj6v7TYGvCybK-33" edge="1">
          <mxGeometry relative="1" as="geometry">
            <Array as="points">
              <mxPoint x="590" y="650" />
            </Array>
          </mxGeometry>
        </mxCell>
        <mxCell id="542ienEPj6v7TYGvCybK-60" value="sigma7*&lt;br&gt;sigma8*&lt;br&gt;€*/pay" style="edgeLabel;html=1;align=center;verticalAlign=middle;resizable=0;points=[];" parent="542ienEPj6v7TYGvCybK-59" vertex="1" connectable="0">
          <mxGeometry x="-0.5353" relative="1" as="geometry">
            <mxPoint as="offset" />
          </mxGeometry>
        </mxCell>
        <mxCell id="vRhWBDTnP5E1zHMOb6t0-2" style="edgeStyle=orthogonalEdgeStyle;rounded=0;orthogonalLoop=1;jettySize=auto;html=1;entryX=0.5;entryY=0;entryDx=0;entryDy=0;" edge="1" parent="WIyWlLk6GJQsqaUBKTNV-1" source="542ienEPj6v7TYGvCybK-27" target="542ienEPj6v7TYGvCybK-33">
          <mxGeometry relative="1" as="geometry">
            <Array as="points">
              <mxPoint x="590" y="460" />
              <mxPoint x="365" y="460" />
            </Array>
          </mxGeometry>
        </mxCell>
        <mxCell id="vRhWBDTnP5E1zHMOb6t0-3" value="interstage wall thickness" style="edgeLabel;html=1;align=center;verticalAlign=middle;resizable=0;points=[];" vertex="1" connectable="0" parent="vRhWBDTnP5E1zHMOb6t0-2">
          <mxGeometry x="-0.043" y="-2" relative="1" as="geometry">
            <mxPoint as="offset" />
          </mxGeometry>
        </mxCell>
        <mxCell id="542ienEPj6v7TYGvCybK-27" value="Odin" style="rounded=1;whiteSpace=wrap;html=1;fontSize=12;glass=0;strokeWidth=1;shadow=0;" parent="WIyWlLk6GJQsqaUBKTNV-1" vertex="1">
          <mxGeometry x="560" y="360" width="60" height="40" as="geometry" />
        </mxCell>
        <mxCell id="542ienEPj6v7TYGvCybK-35" style="edgeStyle=orthogonalEdgeStyle;rounded=0;orthogonalLoop=1;jettySize=auto;html=1;entryX=1;entryY=0.5;entryDx=0;entryDy=0;" parent="WIyWlLk6GJQsqaUBKTNV-1" source="542ienEPj6v7TYGvCybK-33" target="542ienEPj6v7TYGvCybK-40" edge="1">
          <mxGeometry relative="1" as="geometry">
            <mxPoint x="50" y="570" as="targetPoint" />
          </mxGeometry>
        </mxCell>
        <mxCell id="542ienEPj6v7TYGvCybK-36" value="yes" style="edgeLabel;html=1;align=center;verticalAlign=middle;resizable=0;points=[];" parent="542ienEPj6v7TYGvCybK-35" vertex="1" connectable="0">
          <mxGeometry relative="1" as="geometry">
            <mxPoint as="offset" />
          </mxGeometry>
        </mxCell>
        <mxCell id="542ienEPj6v7TYGvCybK-43" style="edgeStyle=orthogonalEdgeStyle;rounded=0;orthogonalLoop=1;jettySize=auto;html=1;entryX=0.5;entryY=0;entryDx=0;entryDy=0;" parent="WIyWlLk6GJQsqaUBKTNV-1" source="542ienEPj6v7TYGvCybK-33" target="542ienEPj6v7TYGvCybK-39" edge="1">
          <mxGeometry relative="1" as="geometry" />
        </mxCell>
        <mxCell id="542ienEPj6v7TYGvCybK-44" value="no" style="edgeLabel;html=1;align=center;verticalAlign=middle;resizable=0;points=[];" parent="542ienEPj6v7TYGvCybK-43" vertex="1" connectable="0">
          <mxGeometry relative="1" as="geometry">
            <mxPoint as="offset" />
          </mxGeometry>
        </mxCell>
        <mxCell id="542ienEPj6v7TYGvCybK-33" value="€/pay &amp;lt; €*/pay&lt;br&gt;&amp;amp; &lt;br&gt;sigma7, sigma8 &amp;gt; sigma7*, sigma8*&lt;br&gt;?" style="rhombus;whiteSpace=wrap;html=1;shadow=0;fontFamily=Helvetica;fontSize=12;align=center;strokeWidth=1;spacing=6;spacingTop=-4;" parent="WIyWlLk6GJQsqaUBKTNV-1" vertex="1">
          <mxGeometry x="260" y="540" width="210" height="220" as="geometry" />
        </mxCell>
        <mxCell id="542ienEPj6v7TYGvCybK-61" style="edgeStyle=orthogonalEdgeStyle;rounded=0;orthogonalLoop=1;jettySize=auto;html=1;entryX=0.5;entryY=1;entryDx=0;entryDy=0;" parent="WIyWlLk6GJQsqaUBKTNV-1" source="542ienEPj6v7TYGvCybK-39" target="542ienEPj6v7TYGvCybK-63" edge="1">
          <mxGeometry relative="1" as="geometry">
            <mxPoint x="660" y="290" as="targetPoint" />
          </mxGeometry>
        </mxCell>
        <mxCell id="542ienEPj6v7TYGvCybK-39" value="sigma7_new = sigma7*&lt;br&gt;sigma8_new = sigma8*" style="rounded=1;whiteSpace=wrap;html=1;fontSize=12;glass=0;strokeWidth=1;shadow=0;" parent="WIyWlLk6GJQsqaUBKTNV-1" vertex="1">
          <mxGeometry x="292.5" y="800" width="145" height="80" as="geometry" />
        </mxCell>
        <mxCell id="542ienEPj6v7TYGvCybK-47" style="edgeStyle=orthogonalEdgeStyle;rounded=0;orthogonalLoop=1;jettySize=auto;html=1;entryX=0.5;entryY=1;entryDx=0;entryDy=0;" parent="WIyWlLk6GJQsqaUBKTNV-1" source="542ienEPj6v7TYGvCybK-40" target="542ienEPj6v7TYGvCybK-46" edge="1">
          <mxGeometry relative="1" as="geometry" />
        </mxCell>
        <mxCell id="542ienEPj6v7TYGvCybK-40" value="sigma7_new = sigma7&lt;br&gt;sigma8_new = sigma8" style="rounded=1;whiteSpace=wrap;html=1;fontSize=12;glass=0;strokeWidth=1;shadow=0;" parent="WIyWlLk6GJQsqaUBKTNV-1" vertex="1">
          <mxGeometry x="65" y="610" width="145" height="80" as="geometry" />
        </mxCell>
        <mxCell id="542ienEPj6v7TYGvCybK-48" style="edgeStyle=orthogonalEdgeStyle;rounded=0;orthogonalLoop=1;jettySize=auto;html=1;entryX=0;entryY=0.5;entryDx=0;entryDy=0;" parent="WIyWlLk6GJQsqaUBKTNV-1" source="542ienEPj6v7TYGvCybK-46" target="542ienEPj6v7TYGvCybK-18" edge="1">
          <mxGeometry relative="1" as="geometry" />
        </mxCell>
        <mxCell id="542ienEPj6v7TYGvCybK-49" value="no" style="edgeLabel;html=1;align=center;verticalAlign=middle;resizable=0;points=[];" parent="542ienEPj6v7TYGvCybK-48" vertex="1" connectable="0">
          <mxGeometry x="-0.5385" y="-2" relative="1" as="geometry">
            <mxPoint as="offset" />
          </mxGeometry>
        </mxCell>
        <mxCell id="542ienEPj6v7TYGvCybK-50" style="edgeStyle=orthogonalEdgeStyle;rounded=0;orthogonalLoop=1;jettySize=auto;html=1;entryX=1;entryY=0.5;entryDx=0;entryDy=0;" parent="WIyWlLk6GJQsqaUBKTNV-1" source="542ienEPj6v7TYGvCybK-46" target="542ienEPj6v7TYGvCybK-52" edge="1">
          <mxGeometry relative="1" as="geometry">
            <mxPoint x="60" y="430" as="targetPoint" />
          </mxGeometry>
        </mxCell>
        <mxCell id="542ienEPj6v7TYGvCybK-51" value="yes" style="edgeLabel;html=1;align=center;verticalAlign=middle;resizable=0;points=[];" parent="542ienEPj6v7TYGvCybK-50" vertex="1" connectable="0">
          <mxGeometry x="-0.2476" y="2" relative="1" as="geometry">
            <mxPoint as="offset" />
          </mxGeometry>
        </mxCell>
        <mxCell id="542ienEPj6v7TYGvCybK-46" value="&lt;br&gt;residuum:&lt;br&gt;sigma7_new - sigma7&lt;br&gt;&amp;amp;&lt;br&gt;sigma8_new - sigma8&lt;br&gt;&amp;lt;&lt;br&gt;e-4&lt;br&gt;?" style="rhombus;whiteSpace=wrap;html=1;shadow=0;fontFamily=Helvetica;fontSize=12;align=center;strokeWidth=1;spacing=6;spacingTop=-4;" parent="WIyWlLk6GJQsqaUBKTNV-1" vertex="1">
          <mxGeometry x="62.5" y="370" width="150" height="140" as="geometry" />
        </mxCell>
        <mxCell id="542ienEPj6v7TYGvCybK-52" value="finito" style="rounded=1;whiteSpace=wrap;html=1;fontSize=12;glass=0;strokeWidth=1;shadow=0;" parent="WIyWlLk6GJQsqaUBKTNV-1" vertex="1">
          <mxGeometry x="-42.5" y="420" width="65" height="40" as="geometry" />
        </mxCell>
        <mxCell id="542ienEPj6v7TYGvCybK-53" value="i = i +1" style="verticalLabelPosition=middle;html=1;verticalAlign=middle;strokeWidth=2;shape=mxgraph.lean_mapping.physical_pull;pointerEvents=1;rotation=0;flipH=1;labelPosition=center;align=center;" parent="WIyWlLk6GJQsqaUBKTNV-1" vertex="1">
          <mxGeometry x="210" y="480" width="80" height="80" as="geometry" />
        </mxCell>
        <mxCell id="542ienEPj6v7TYGvCybK-56" style="edgeStyle=orthogonalEdgeStyle;rounded=0;orthogonalLoop=1;jettySize=auto;html=1;entryX=0;entryY=0.5;entryDx=0;entryDy=0;" parent="WIyWlLk6GJQsqaUBKTNV-1" source="542ienEPj6v7TYGvCybK-55" target="542ienEPj6v7TYGvCybK-27" edge="1">
          <mxGeometry relative="1" as="geometry" />
        </mxCell>
        <mxCell id="542ienEPj6v7TYGvCybK-55" value="Loadcase &lt;br&gt;generator" style="rounded=1;whiteSpace=wrap;html=1;fontSize=12;glass=0;strokeWidth=1;shadow=0;" parent="WIyWlLk6GJQsqaUBKTNV-1" vertex="1">
          <mxGeometry x="400" y="360" width="120" height="40" as="geometry" />
        </mxCell>
        <mxCell id="542ienEPj6v7TYGvCybK-62" value="&#xa;&lt;span style=&quot;color: rgb(240, 240, 240); font-family: Helvetica; font-size: 12px; font-style: normal; font-variant-ligatures: normal; font-variant-caps: normal; font-weight: 400; letter-spacing: normal; orphans: 2; text-align: center; text-indent: 0px; text-transform: none; widows: 2; word-spacing: 0px; -webkit-text-stroke-width: 0px; background-color: rgb(27, 29, 30); text-decoration-thickness: initial; text-decoration-style: initial; text-decoration-color: initial; float: none; display: inline !important;&quot;&gt;i = i +1&lt;/span&gt;&#xa;&#xa;" style="verticalLabelPosition=middle;html=1;verticalAlign=bottom;strokeWidth=2;shape=mxgraph.lean_mapping.physical_pull;pointerEvents=1;labelPosition=center;align=center;" parent="WIyWlLk6GJQsqaUBKTNV-1" vertex="1">
          <mxGeometry x="510" y="720" width="70" height="70" as="geometry" />
        </mxCell>
        <mxCell id="542ienEPj6v7TYGvCybK-64" style="edgeStyle=orthogonalEdgeStyle;rounded=0;orthogonalLoop=1;jettySize=auto;html=1;entryX=1;entryY=0.5;entryDx=0;entryDy=0;" parent="WIyWlLk6GJQsqaUBKTNV-1" source="542ienEPj6v7TYGvCybK-63" target="542ienEPj6v7TYGvCybK-18" edge="1">
          <mxGeometry relative="1" as="geometry">
            <Array as="points">
              <mxPoint x="715" y="200" />
            </Array>
          </mxGeometry>
        </mxCell>
        <mxCell id="542ienEPj6v7TYGvCybK-65" value="njo" style="edgeLabel;html=1;align=center;verticalAlign=middle;resizable=0;points=[];" parent="542ienEPj6v7TYGvCybK-64" vertex="1" connectable="0">
          <mxGeometry x="-0.8731" y="1" relative="1" as="geometry">
            <mxPoint as="offset" />
          </mxGeometry>
        </mxCell>
        <mxCell id="542ienEPj6v7TYGvCybK-63" value="&lt;br&gt;residuum:&lt;br&gt;sigma7_new - sigma7&lt;br&gt;&amp;amp;&lt;br&gt;sigma8_new - sigma8&lt;br&gt;&amp;lt;&lt;br&gt;e-4&lt;br&gt;?" style="rhombus;whiteSpace=wrap;html=1;shadow=0;fontFamily=Helvetica;fontSize=12;align=center;strokeWidth=1;spacing=6;spacingTop=-4;" parent="WIyWlLk6GJQsqaUBKTNV-1" vertex="1">
          <mxGeometry x="640" y="430" width="150" height="140" as="geometry" />
        </mxCell>
      </root>
    </mxGraphModel>
  </diagram>
</mxfile>
